<?xml version="1.0" standalone="no"?>
<!DOCTYPE svg PUBLIC "-//W3C//DTD SVG 20010904//EN"
 "http://www.w3.org/TR/2001/REC-SVG-20010904/DTD/svg10.dtd">
<svg version="1.0" xmlns="http://www.w3.org/2000/svg"
 width="16.000000pt" height="16.000000pt" viewBox="0 0 16.000000 16.000000"
 preserveAspectRatio="xMidYMid meet">
<metadata>
Created by potrace 1.11, written by Peter Selinger 2001-2013
</metadata>
<g transform="translate(0.000000,16.000000) scale(0.010000,-0.010000)"
fill="#000000" stroke="none">
<path d="M555 1550 c3 -5 8 -10 11 -10 2 0 4 5 4 10 0 6 -5 10 -11 10 -5 0 -7
-4 -4 -10z"/>
<path d="M585 1550 c3 -5 8 -10 11 -10 2 0 4 5 4 10 0 6 -5 10 -11 10 -5 0 -7
-4 -4 -10z"/>
<path d="M530 1535 c7 -9 15 -13 17 -11 7 7 -7 26 -19 26 -6 0 -6 -6 2 -15z"/>
<path d="M665 1530 c-3 -5 -1 -10 4 -10 6 0 11 5 11 10 0 6 -2 10 -4 10 -3 0
-8 -4 -11 -10z"/>
<path d="M782 1505 c-18 -8 -36 -14 -40 -13 -4 2 -20 -6 -35 -16 -24 -16 -30
-17 -38 -5 -7 11 -9 10 -9 -4 0 -14 -5 -17 -20 -12 -11 4 -20 2 -20 -4 0 -6 6
-11 13 -11 6 0 -4 -14 -23 -30 -19 -16 -30 -30 -24 -30 5 0 15 5 22 12 9 9 12
9 12 -2 0 -10 5 -9 19 4 19 17 19 17 14 -4 -3 -11 -2 -20 3 -19 24 4 32 -3 27
-22 -3 -11 -12 -23 -19 -26 -8 -3 -14 -15 -13 -27 0 -20 1 -20 9 -1 7 15 9 10
9 -22 l1 -43 -41 0 c-37 0 -40 -2 -33 -22 3 -13 13 -31 22 -40 14 -17 13 -18
-9 -18 -13 0 -31 -5 -39 -11 -11 -8 1 -9 45 -4 139 16 158 5 69 -38 -31 -16
-54 -30 -51 -33 3 -3 16 2 30 11 78 51 135 35 174 -51 13 -29 32 -59 41 -65
15 -9 15 -10 -2 -5 -13 5 -17 2 -13 -8 10 -27 -40 -28 -103 -2 -46 19 -67 23
-85 16 -19 -7 -27 -6 -33 8 -5 9 -7 23 -4 31 3 10 0 12 -13 7 -14 -5 -17 -2
-13 19 3 14 2 25 -3 25 -13 0 -31 -39 -24 -51 4 -5 -5 -22 -19 -36 -30 -30
-32 -45 -9 -69 16 -15 16 -18 -1 -47 -9 -17 -23 -64 -31 -105 -11 -56 -22 -83
-42 -104 -33 -34 -37 -34 -117 -2 -52 21 -65 30 -69 52 -3 15 -15 33 -27 40
-30 18 -38 7 -10 -16 24 -19 28 -47 17 -102 -8 -35 -8 -35 7 -10 l15 25 1 -33
c0 -35 -19 -81 -43 -101 -17 -13 -20 -7 -31 61 -5 29 -1 44 19 74 27 40 31 54
15 54 -5 0 -10 -4 -10 -8 0 -21 -40 -53 -62 -50 -35 5 -37 51 -2 83 15 14 22
25 17 25 -6 0 -14 39 -18 88 -6 83 -29 238 -41 274 -3 9 -20 22 -39 28 -63 21
-114 -24 -101 -88 3 -15 8 -45 11 -67 4 -22 10 -53 15 -70 5 -16 11 -50 15
-75 4 -25 9 -53 11 -62 4 -12 -2 -17 -22 -20 -15 -2 -29 -9 -32 -16 -3 -11 -1
-11 17 -1 17 12 24 10 48 -7 55 -42 22 -106 -37 -72 -25 14 -30 15 -30 3 0 -8
4 -15 9 -15 5 0 7 -17 4 -39 -5 -34 -2 -40 25 -60 17 -12 45 -21 66 -21 29 0
36 -4 36 -20 0 -25 -36 -27 -62 -3 -10 9 -18 12 -18 7 0 -5 13 -17 29 -27 29
-17 41 -52 41 -122 0 -20 10 -39 29 -58 17 -15 33 -38 36 -50 23 -78 53 -115
70 -88 8 14 -15 59 -34 64 -14 4 -13 5 2 6 13 1 17 10 18 44 0 23 2 57 5 76 2
19 0 49 -5 68 -9 31 -8 34 7 28 53 -23 168 -43 213 -38 42 5 49 4 43 -10 -5
-15 -22 -19 -133 -33 -53 -6 -53 -6 -47 -36 7 -34 37 -101 42 -95 3 2 -3 20
-11 40 -16 39 -20 77 -7 77 122 8 279 46 555 137 13 4 17 -1 17 -23 1 -35 21
-94 45 -130 24 -38 30 -22 6 17 -12 19 -21 36 -21 39 0 3 29 3 65 2 l66 -4
-22 -19 c-17 -15 -24 -17 -31 -7 -5 9 -8 10 -8 1 0 -21 19 -25 42 -9 27 19 64
21 71 4 3 -7 6 -2 6 12 1 21 8 28 41 37 29 7 40 7 40 -1 0 -6 5 -4 10 4 9 13
10 13 9 0 -1 -8 -5 -26 -9 -40 -7 -23 -8 -23 -9 -3 -1 27 -11 34 -39 27 -25
-7 -38 -34 -16 -34 8 0 13 4 10 9 -3 5 3 11 14 14 15 4 20 0 20 -13 0 -15 -11
-20 -57 -25 -32 -3 -74 -9 -93 -12 -19 -4 -42 -5 -50 -4 -8 2 -12 0 -9 -3 4
-4 -9 -22 -28 -41 -28 -28 -34 -41 -31 -64 5 -37 -6 -41 -127 -41 -157 -1
-208 -25 -203 -97 2 -34 3 -35 38 -28 106 19 110 19 110 -4 0 -11 5 -21 11
-21 23 0 1 74 -31 102 l-30 28 27 0 c123 1 411 32 475 51 28 8 36 6 51 -12 9
-12 17 -30 17 -40 0 -10 1 -19 3 -19 1 1 26 9 55 19 53 18 75 31 54 31 -7 0
-12 14 -12 33 0 37 -47 101 -82 113 -34 11 71 44 113 35 42 -8 79 -60 79 -108
0 -30 -5 -36 -42 -53 -24 -11 -38 -20 -32 -20 18 0 87 31 107 48 15 14 17 14
17 -1 0 -26 14 -20 33 12 39 66 11 144 -117 321 -91 126 -94 132 -83 156 6 15
5 30 -6 50 -8 16 -18 43 -21 61 -6 26 -4 34 13 43 12 6 21 20 21 31 0 11 8 50
17 85 16 61 16 66 0 94 -17 29 -17 30 4 59 11 16 27 54 34 85 l13 56 -52 -6
-53 -6 -34 57 c-19 32 -39 68 -46 79 -32 57 -217 116 -363 116 -60 -1 -107 -6
-128 -15z m267 -179 c9 -11 6 -15 -18 -19 -21 -4 -32 -15 -40 -38 -6 -17 -8
-35 -5 -40 3 -5 -4 -9 -15 -9 -28 0 -31 10 -16 53 20 59 67 85 94 53z m-247
-38 c-12 -6 -25 -23 -28 -37 -9 -43 -14 -54 -20 -48 -19 18 30 98 59 96 6 0 2
-5 -11 -11z m623 -84 c-16 -55 -22 -61 -37 -46 -7 7 -16 12 -22 12 -5 0 -2 -6
9 -13 12 -9 14 -16 7 -21 -6 -3 -16 2 -21 13 -14 25 -14 27 5 45 22 23 36 20
29 -6 -5 -21 -5 -21 5 -5 7 10 9 21 6 24 -5 5 21 43 30 43 2 0 -3 -21 -11 -46z
m-481 -5 c-3 -5 -11 -9 -17 -9 -24 0 -14 -40 11 -47 18 -4 21 -8 10 -14 -18
-12 -65 -11 -89 1 -15 8 -23 7 -35 -5 -8 -8 -23 -15 -32 -15 -15 0 -15 2 -2
10 16 10 8 14 -22 11 -10 -1 -18 3 -18 8 0 6 12 12 28 12 l27 1 -26 7 c-24 6
-25 7 -9 24 16 16 18 16 43 -8 20 -20 27 -23 34 -13 17 27 64 56 83 51 11 -3
17 -9 14 -14z m-288 -7 c-16 -2 -32 0 -37 5 -5 5 7 7 29 4 34 -5 35 -6 8 -9z
m470 -8 c28 -15 27 -15 -31 -8 -33 4 -76 7 -95 6 l-35 0 30 8 c50 13 101 11
131 -6z m-398 -21 c-10 -2 -26 -2 -35 0 -10 3 -2 5 17 5 19 0 27 -2 18 -5z
m295 -10 c-7 -2 -21 -2 -30 0 -10 3 -4 5 12 5 17 0 24 -2 18 -5z m191 -24 c20
-12 34 -25 31 -29 -3 -5 -1 -11 5 -15 5 -3 10 -13 10 -21 0 -9 7 -22 15 -31 8
-8 13 -19 9 -24 -3 -6 0 -17 8 -26 9 -12 9 -15 1 -9 -9 5 -13 0 -13 -17 0 -43
-29 -66 -108 -82 -40 -8 -98 -15 -128 -15 -52 0 -56 2 -65 30 -8 23 -19 31
-45 36 -28 5 -32 9 -23 20 9 11 8 14 -2 14 -8 0 -3 6 10 13 13 6 40 41 60 77
26 45 44 66 59 68 12 2 22 -1 22 -7 0 -6 6 -8 13 -5 11 4 67 -10 122 -31 15
-6 17 -5 9 4 -6 7 -38 21 -70 31 -39 12 -60 24 -63 35 -3 16 3 17 52 11 31 -3
72 -15 91 -27z m-339 -29 c3 -5 -3 -10 -14 -10 -12 0 -21 5 -21 10 0 6 6 10
14 10 8 0 18 -4 21 -10z m-740 -42 c8 -39 25 -141 25 -153 0 -7 -12 -10 -32
-7 -18 3 -27 7 -20 9 7 3 11 21 11 46 l-2 42 -6 -40 -6 -40 -8 34 c-4 18 -7
47 -7 63 0 16 -5 38 -10 49 -10 17 -7 19 19 19 24 0 32 -5 36 -22z m769 -30
c-5 -8 -2 -9 9 -5 9 3 19 2 22 -3 4 -6 -1 -10 -10 -10 -8 0 -18 -7 -21 -15 -4
-8 -14 -15 -23 -15 -14 1 -14 2 2 11 9 6 15 14 12 20 -6 9 2 29 11 29 3 0 2
-5 -2 -12z m-867 -60 c-3 -7 -5 -2 -5 12 0 14 2 19 5 13 2 -7 2 -19 0 -25z
m10 -50 c-3 -8 -6 -5 -6 6 -1 11 2 17 5 13 3 -3 4 -12 1 -19z m117 -78 c3 -22
9 -58 12 -80 6 -38 -7 -56 -20 -27 -3 6 -3 2 -1 -10 3 -12 1 -24 -4 -28 -7 -4
-9 16 -6 57 2 44 1 54 -5 33 l-8 -30 -1 30 c-1 17 -4 41 -7 55 -4 20 -3 22 5
10 9 -13 11 -13 11 2 0 9 -8 19 -17 21 -12 3 -8 5 9 6 23 1 27 -3 32 -39z
m-97 -12 c-3 -8 -6 -5 -6 6 -1 11 2 17 5 13 3 -3 4 -12 1 -19z m26 -103 c9
-18 9 -19 -6 -6 -10 7 -17 23 -16 35 0 14 2 16 6 6 3 -8 10 -24 16 -35z m1283
-56 c4 -8 -1 -9 -17 -4 -23 7 -24 7 -4 -9 l20 -16 -20 2 c-48 3 -63 -4 -94
-46 -21 -28 -39 -42 -48 -39 -8 3 -12 12 -9 20 4 8 1 11 -5 7 -6 -3 -9 -14 -6
-24 4 -15 -5 -19 -67 -27 -79 -9 -179 -5 -171 7 3 4 -2 11 -11 14 -8 3 -12 2
-9 -4 3 -6 0 -10 -8 -10 -9 0 -12 9 -9 28 l4 29 88 0 c49 1 103 4 121 8 27 6
31 5 26 -9 -7 -18 17 -23 28 -6 3 6 0 10 -7 10 -7 0 9 12 35 26 27 14 55 23
63 20 8 -3 14 -1 14 5 0 22 74 37 86 18z m-1254 -85 c16 -35 -8 -59 -50 -49
-39 8 -56 28 -48 58 5 20 10 22 46 19 32 -3 44 -10 52 -28z m80 -25 c4 -19 10
-47 13 -64 3 -16 10 -54 16 -84 9 -43 8 -55 -3 -62 -26 -17 -33 -8 -33 45 0
30 -3 52 -6 50 -4 -2 -9 28 -11 66 -3 38 -11 77 -18 85 -11 13 -10 14 11 7 16
-6 26 -20 31 -43z m252 6 c7 -26 -29 -115 -46 -115 -6 0 -8 -3 -5 -6 4 -4 13
-1 22 6 9 7 19 10 23 6 13 -14 -39 -47 -62 -40 -35 10 -41 22 -23 42 10 10 23
42 29 70 8 32 18 52 27 52 11 0 11 -3 1 -15 -7 -9 -10 -18 -7 -21 3 -3 10 4
17 15 9 18 7 22 -15 31 -35 13 -32 21 4 9 17 -6 32 -20 35 -34z m984 -47 c-2
-7 2 -14 7 -14 6 -1 9 2 8 7 -2 5 1 9 6 9 13 0 36 -42 36 -65 0 -16 -6 -19
-32 -17 -34 4 -64 -9 -97 -39 -11 -11 -23 -19 -28 -19 -15 0 -28 40 -22 65 6
26 24 35 24 13 0 -10 3 -9 9 1 7 10 10 11 16 1 5 -8 1 -18 -11 -27 -17 -13
-17 -13 6 -9 14 2 28 5 33 5 4 1 7 6 7 12 0 5 -4 7 -10 4 -5 -3 -10 -1 -10 4
0 6 7 11 15 11 8 0 15 -4 15 -9 0 -5 9 -7 20 -4 11 3 20 10 20 15 0 7 5 6 14
-1 11 -9 12 -6 8 15 -3 17 -8 22 -15 15 -5 -5 -15 -8 -21 -7 -6 2 -8 1 -3 -1
12 -8 8 -23 -7 -23 -16 0 -29 27 -20 41 7 12 -17 11 -36 -1 -12 -7 -10 -11 9
-18 19 -7 21 -10 8 -15 -8 -3 -21 0 -27 8 -6 8 -19 11 -28 8 -12 -4 -11 -1 4
10 17 13 71 33 97 36 4 1 7 -5 5 -11z m-137 -71 c-10 -9 -11 -8 -5 6 3 10 9
15 12 12 3 -3 0 -11 -7 -18z m235 -35 c1 -7 0 -8 -2 -3 -3 6 -12 7 -20 4 -8
-3 -14 0 -14 7 0 15 33 9 36 -8z m-403 -39 c-7 -2 -19 -2 -25 0 -7 3 -2 5 12
5 14 0 19 -2 13 -5z m-963 -34 c0 -5 -4 -9 -10 -9 -5 0 -10 7 -10 16 0 8 5 12
10 9 6 -3 10 -10 10 -16z m15 -29 c3 -5 1 -10 -4 -10 -6 0 -11 5 -11 10 0 6 2
10 4 10 3 0 8 -4 11 -10z m52 -12 c-3 -8 -6 -5 -6 6 -1 11 2 17 5 13 3 -3 4
-12 1 -19z m955 -5 c8 -10 19 -30 26 -45 11 -26 10 -28 -26 -37 -20 -5 -64
-12 -97 -16 -54 -6 -58 -5 -46 9 8 9 11 19 8 23 -9 8 -38 -17 -32 -27 5 -9
-18 -20 -41 -20 -21 0 -17 51 6 78 41 50 170 72 202 35z m-522 -167 c0 -2 -8
-10 -17 -17 -16 -13 -17 -12 -4 4 13 16 21 21 21 13z m64 -5 c4 -5 -3 -7 -14
-4 -23 6 -26 13 -6 13 8 0 17 -4 20 -9z m26 -42 c0 -5 -4 -9 -10 -9 -5 0 -10
7 -10 16 0 8 5 12 10 9 6 -3 10 -10 10 -16z m-30 1 c0 -5 -5 -10 -11 -10 -5 0
-7 5 -4 10 3 6 8 10 11 10 2 0 4 -4 4 -10z m-60 -16 c0 -2 -7 -4 -15 -4 -8 0
-15 4 -15 10 0 5 7 7 15 4 8 -4 15 -8 15 -10z"/>
<path d="M98 1045 c2 -14 6 -25 8 -25 2 0 4 11 4 25 0 14 -4 25 -9 25 -4 0 -6
-11 -3 -25z"/>
<path d="M1308 653 c7 -3 16 -2 19 1 4 3 -2 6 -13 5 -11 0 -14 -3 -6 -6z"/>
<path d="M1235 620 c-3 -5 -1 -10 4 -10 6 0 11 5 11 10 0 6 -2 10 -4 10 -3 0
-8 -4 -11 -10z"/>
<path d="M988 578 c6 -6 28 -12 49 -14 66 -5 69 -6 43 -14 -21 -7 -19 -8 15
-8 22 0 51 4 65 9 20 7 17 8 -15 4 -22 -2 -34 -2 -27 1 6 3 12 10 12 15 0 6
-4 7 -10 4 -5 -3 -10 -1 -10 6 0 8 -4 8 -16 -2 -13 -10 -17 -10 -24 1 -6 10
-12 11 -22 2 -9 -7 -19 -8 -28 -2 -22 14 -47 13 -32 -2z"/>
<path d="M1220 575 c0 -8 2 -15 4 -15 2 0 6 7 10 15 3 8 1 15 -4 15 -6 0 -10
-7 -10 -15z"/>
<path d="M962 556 c13 -14 28 -12 28 5 0 5 -9 9 -20 9 -17 0 -19 -2 -8 -14z"/>
<path d="M1000 546 c0 -2 11 -6 25 -8 13 -3 22 -1 19 3 -5 9 -44 13 -44 5z"/>
<path d="M441 544 c0 -11 3 -14 6 -6 3 7 2 16 -1 19 -3 4 -6 -2 -5 -13z"/>
<path d="M417 516 c-4 -10 -1 -13 8 -9 8 3 12 9 9 14 -7 12 -11 11 -17 -5z"/>
<path d="M375 449 c-4 -6 -5 -12 -2 -15 2 -3 7 2 10 11 7 17 1 20 -8 4z"/>
<path d="M485 1490 c3 -5 11 -10 16 -10 6 0 7 5 4 10 -3 6 -11 10 -16 10 -6 0
-7 -4 -4 -10z"/>
<path d="M468 1463 c6 -2 18 -2 25 0 6 3 1 5 -13 5 -14 0 -19 -2 -12 -5z"/>
<path d="M458 1443 c7 -3 16 -2 19 1 4 3 -2 6 -13 5 -11 0 -14 -3 -6 -6z"/>
<path d="M470 1400 c-8 -5 -11 -12 -7 -16 4 -4 13 -2 19 4 15 15 7 24 -12 12z"/>
<path d="M480 1365 c-7 -9 -11 -18 -8 -20 3 -3 11 1 18 10 7 9 11 18 8 20 -3
3 -11 -1 -18 -10z"/>
<path d="M500 1350 c-8 -5 -11 -12 -7 -16 4 -4 13 -2 19 4 15 15 7 24 -12 12z"/>
<path d="M517 1323 c-11 -10 -8 -25 3 -18 6 3 10 1 10 -6 0 -10 3 -10 11 -2 6
6 8 16 5 22 -8 12 -20 14 -29 4z"/>
<path d="M560 1306 c0 -8 5 -18 10 -21 6 -3 10 1 10 9 0 8 -4 18 -10 21 -5 3
-10 -1 -10 -9z"/>
<path d="M590 1303 c0 -13 5 -23 10 -23 13 0 13 11 0 30 -8 12 -10 11 -10 -7z"/>
<path d="M625 1309 c-4 -6 -5 -12 -2 -15 2 -3 7 2 10 11 7 17 1 20 -8 4z"/>
<path d="M590 1075 c-7 -9 -11 -18 -8 -20 3 -3 11 1 18 10 7 9 11 18 8 20 -3
3 -11 -1 -18 -10z"/>
<path d="M992 354 c10 -10 20 -15 24 -12 3 4 -5 12 -18 18 -22 12 -22 12 -6
-6z"/>
<path d="M1421 341 c-10 -6 -9 -10 3 -14 8 -3 18 -2 21 3 8 13 -9 20 -24 11z"/>
<path d="M1461 314 c0 -11 3 -14 6 -6 3 7 2 16 -1 19 -3 4 -6 -2 -5 -13z"/>
<path d="M1415 300 c-3 -5 -1 -10 4 -10 6 0 11 5 11 10 0 6 -2 10 -4 10 -3 0
-8 -4 -11 -10z"/>
<path d="M1385 280 c-3 -5 -1 -10 4 -10 6 0 11 5 11 10 0 6 -2 10 -4 10 -3 0
-8 -4 -11 -10z"/>
<path d="M1400 234 c0 -8 5 -14 10 -14 6 0 10 5 10 11 0 5 6 7 13 3 6 -4 8 -3
4 1 -13 15 -37 14 -37 -1z"/>
<path d="M420 111 c0 -6 4 -13 10 -16 6 -3 7 1 4 9 -7 18 -14 21 -14 7z"/>
<path d="M1155 69 c-183 -48 -248 -67 -229 -68 29 -1 307 68 319 80 13 13 -8
10 -90 -12z"/>
<path d="M449 63 c11 -21 49 -63 57 -63 3 0 -10 18 -27 40 -34 43 -46 51 -30
23z"/>
</g>
</svg>
